<?xml version="1.0" encoding="UTF-8"?>
<svg version="1.1" xmlns="http://www.w3.org/2000/svg" width="500" height="500">
<path d="M0 0 C165 0 330 0 500 0 C500 165 500 330 500 500 C335 500 170 500 0 500 C0 335 0 170 0 0 Z " fill="#FEFEFE" transform="translate(0,0)"/>
<path d="M0 0 C0.66 0 1.32 0 2 0 C2.26475165 7.36436294 2.52574426 14.72884981 2.78230286 22.093503 C2.9016217 25.51544393 3.02210081 28.93733473 3.14550781 32.35913086 C3.69351375 47.57737462 4.17397895 62.77080114 4 78 C-5 73.5 -5 73.5 -14 69 C-14.24234375 69.67804688 -14.4846875 70.35609375 -14.734375 71.0546875 C-25.22278762 95.462907 -46.35706835 119.35706835 -65 138 C-66.27217311 139.45716473 -67.5427974 140.91568208 -68.8125 142.375 C-74.81921253 149.09250685 -81.45452409 155.12850081 -88.08105469 161.22509766 C-89.76857357 162.78594528 -91.43903772 164.36186423 -93.1015625 165.94921875 C-100.6399658 173.06189955 -108.70763645 179.28005036 -116.99707031 185.48486328 C-118.77578793 186.83039248 -120.53010468 188.19897915 -122.2734375 189.58984375 C-144.49583098 207.2135157 -169.71282478 221.31637868 -195 234 C-195.73750488 234.3707666 -196.47500977 234.7415332 -197.23486328 235.12353516 C-217.75783539 245.34347673 -239.25751016 253.46982375 -261.11181641 260.32666016 C-262.98575801 260.84291944 -262.98575801 260.84291944 -264 262 C-263.34854004 262.37584229 -262.69708008 262.75168457 -262.02587891 263.13891602 C-261.10210449 263.67186279 -260.17833008 264.20480957 -259.2265625 264.75390625 C-258.18725586 265.35348145 -257.14794922 265.95305664 -256.07714844 266.57080078 C-253.74437958 267.91667973 -251.41168522 269.2626869 -249.07910156 270.60888672 C-243.14074008 274.03583366 -237.20113928 277.46057374 -231.2578125 280.87890625 C-230.17814209 281.50120117 -229.09847168 282.12349609 -227.98608398 282.76464844 C-225.83003208 284.00411396 -223.67067837 285.23785376 -221.50805664 286.46582031 C-216.17848809 289.50758789 -210.96941555 292.63751123 -205.86328125 296.04296875 C-204.88456055 296.67702637 -203.90583984 297.31108398 -202.89746094 297.96435547 C-201.06163761 299.16115039 -199.2487122 300.39414863 -197.46582031 301.66845703 C-194.91561179 303.30616439 -192.97250307 304.39249596 -190 305 C-185.82275199 303.78357226 -182.57072225 301.43260518 -179 299 C-176.914599 297.79691588 -174.81909105 296.61121479 -172.71484375 295.44140625 C-170.45500088 294.14971082 -168.19591708 292.85668669 -165.9375 291.5625 C-164.7078663 290.8587682 -163.47821091 290.15507432 -162.24853516 289.45141602 C-150.88911406 282.94804244 -139.55106845 276.40766361 -128.21777344 269.85888672 C-123.89623003 267.36235929 -119.57319006 264.86843046 -115.25 262.37475586 C-113.09620284 261.13234237 -110.94255516 259.88966972 -108.7890625 258.64672852 C-103.74938477 255.73813417 -98.70866762 252.8313905 -93.66400146 249.93145752 C-91.88250422 248.90724335 -90.10135678 247.88242349 -88.3203125 246.85742188 C-86.08923375 245.57366625 -83.85750427 244.29104061 -81.625 243.00976562 C-80.61179687 242.42646484 -79.59859375 241.84316406 -78.5546875 241.2421875 C-77.67280762 240.7354248 -76.79092773 240.22866211 -75.88232422 239.70654297 C-74.93115723 239.14338379 -73.97999023 238.58022461 -73 238 C-72.3395572 237.68058378 -71.6791144 237.36116756 -70.99865818 237.03207207 C-68.75423353 235.85055252 -66.88765916 234.69923515 -65 233 C-64.20808636 229.79200825 -64.0040404 227.87420906 -64.14282227 224.68066406 C-64.14635712 223.8555835 -64.14989197 223.03050293 -64.15353394 222.18041992 C-64.16609951 220.39326531 -64.19695406 218.60616582 -64.24405098 216.81958771 C-64.3172072 213.98458588 -64.33935565 211.15320847 -64.34812927 208.31732178 C-64.37988863 201.27486944 -64.49377273 194.23427234 -64.61523438 187.19287109 C-64.71586288 181.24386656 -64.78012852 175.2967159 -64.79456902 169.34685516 C-64.81603452 166.56382013 -64.89060151 163.7854674 -64.9669342 161.003479 C-65.11824543 148.78741389 -65.11824543 148.78741389 -62.08151245 143.93347168 C-59.83814002 141.67064564 -57.58316789 139.85455432 -55 138 C-53.64527007 136.68841227 -52.30510621 135.36097514 -51 134 C-50.90740055 147.75154286 -50.83628588 161.5030118 -50.79275131 175.2548027 C-50.77185898 181.64003241 -50.74351073 188.02504913 -50.69824219 194.41015625 C-50.65484401 200.56985829 -50.6308753 206.7293552 -50.62049103 212.8891983 C-50.61308888 215.24160238 -50.59863459 217.59399498 -50.57707977 219.94631195 C-50.54812673 223.23626644 -50.54404071 226.5253687 -50.54589844 229.81542969 C-50.52432678 231.28062546 -50.52432678 231.28062546 -50.50231934 232.77542114 C-50.54280305 239.38249686 -50.54280305 239.38249686 -52.88334656 242.54370117 C-55.17990314 244.12377687 -57.45865059 245.5602897 -59.91015625 246.890625 C-60.88573486 247.42671387 -61.86131348 247.96280273 -62.86645508 248.51513672 C-64.44849731 249.37389404 -64.44849731 249.37389404 -66.0625 250.25 C-68.34012631 251.50494077 -70.61611475 252.76285785 -72.890625 254.0234375 C-73.47729446 254.3485733 -74.06396393 254.67370911 -74.66841125 255.00869751 C-80.95615143 258.50765622 -87.13610989 262.18366663 -93.3125 265.875 C-103.13516186 271.73679662 -113.01571381 277.47769615 -122.95855713 283.13220215 C-131.06658639 287.74332653 -139.14245605 292.40472747 -147.1875 297.125 C-156.74516599 302.73021142 -166.38343933 308.17856739 -176.0690918 313.55908203 C-177.56049683 314.38835205 -177.56049683 314.38835205 -179.08203125 315.234375 C-179.96093018 315.72131836 -180.8398291 316.20826172 -181.74536133 316.70996094 C-183.53905343 317.7362597 -185.28052815 318.85368544 -187 320 C-194.06329233 320.04610504 -199.25224946 316.26981192 -205.125 312.6875 C-207.2859256 311.39754464 -209.44739342 310.10849723 -211.609375 308.8203125 C-212.68767578 308.17352539 -213.76597656 307.52673828 -214.87695312 306.86035156 C-219.34225768 304.2004375 -223.85434969 301.62683779 -228.375 299.0625 C-236.26612017 294.56938663 -244.13709377 290.04229805 -252 285.5 C-259.78287676 281.00534332 -267.570538 276.51958126 -275.375 272.0625 C-276.19734131 271.59231445 -277.01968262 271.12212891 -277.86694336 270.63769531 C-282.32286264 268.0919416 -286.78363355 265.55508126 -291.2510376 263.02952576 C-293.74237469 261.62016924 -296.23166164 260.20721327 -298.72076416 258.79391479 C-299.92323404 258.11234251 -301.12660583 257.43235829 -302.33099365 256.75418091 C-322.73978096 245.26021904 -322.73978096 245.26021904 -328 240 C-328.27123547 237.27188492 -328.27123547 237.27188492 -328.30107117 233.72564697 C-328.30913011 233.07480314 -328.31718905 232.42395931 -328.3254922 231.75339293 C-328.3499494 229.56246177 -328.35994557 227.37170587 -328.36987305 225.18066406 C-328.38403631 223.61376272 -328.39895188 222.04686802 -328.41456604 220.47998047 C-328.46185951 215.32525154 -328.48749983 210.17050565 -328.51171875 205.015625 C-328.52112488 203.24200138 -328.53061929 201.46837823 -328.54020119 199.69475555 C-328.57870421 192.31732015 -328.61191708 184.93989627 -328.63057232 177.56238174 C-328.65738214 166.98498764 -328.71493043 156.40881668 -328.81633729 145.83186555 C-328.88518068 138.39739346 -328.91953504 130.96324663 -328.92813712 123.52846313 C-328.93414411 119.08664097 -328.9551511 114.64607618 -329.01270103 110.20459747 C-329.06604273 106.02456611 -329.07662068 101.84658273 -329.05455589 97.66629028 C-329.05383928 96.13358036 -329.06849086 94.60077324 -329.09976578 93.06838226 C-329.32309305 81.48614707 -329.32309305 81.48614707 -326.03105259 77.78840542 C-323.73868627 76.23469183 -321.54113925 75.08653586 -319 74 C-318.01136963 73.39937744 -317.02273926 72.79875488 -316.00415039 72.17993164 C-315.12750732 71.67840576 -314.25086426 71.17687988 -313.34765625 70.66015625 C-312.33767578 70.08007812 -311.32769531 69.5 -310.28710938 68.90234375 C-309.22298828 68.29519531 -308.15886719 67.68804687 -307.0625 67.0625 C-305.3326544 66.07007862 -303.60281157 65.07765235 -301.87313843 64.08493042 C-300.09060128 63.06235909 -298.30731803 62.04109866 -296.52392578 61.02001953 C-291.00810231 57.860301 -285.50476433 54.67893132 -280 51.5 C-277.83600547 50.2511843 -275.67194277 49.0024867 -273.5078125 47.75390625 C-272.43563477 47.13531738 -271.36345703 46.51672852 -270.25878906 45.87939453 C-266.98300434 43.99019834 -263.70644107 42.10235891 -260.4296875 40.21484375 C-250.89542677 34.7214016 -241.36426629 29.22303668 -231.85961914 23.6784668 C-229.88586171 22.52714866 -227.91110457 21.37754248 -225.93530273 20.22973633 C-220.73188332 17.20208013 -215.55718344 14.1344048 -210.41015625 11.01171875 C-209.32686035 10.36146729 -208.24356445 9.71121582 -207.12744141 9.04125977 C-205.05312304 7.79517643 -202.98591723 6.53714874 -200.92724609 5.26538086 C-199.99090332 4.7060083 -199.05456055 4.14663574 -198.08984375 3.5703125 C-197.27378662 3.07289551 -196.45772949 2.57547852 -195.61694336 2.06298828 C-191.12344256 0.23775249 -187.47638079 0.3796923 -183.02490234 2.25 C-182.05504395 2.8275 -181.08518555 3.405 -180.0859375 4 C-179.00038574 4.63550781 -177.91483398 5.27101563 -176.79638672 5.92578125 C-175.65499334 6.61564927 -174.51454501 7.30708305 -173.375 8 C-172.20753671 8.70239285 -171.03972957 9.40421448 -169.87158203 10.10546875 C-167.59673961 11.47116321 -165.32498101 12.84155432 -163.0546875 14.21484375 C-160.53834607 15.68539111 -158.04047681 17.01064975 -155.40625 18.25 C-149.47310334 21.19032047 -149.47310334 21.19032047 -147 24 C-145.95522025 29.22925659 -146.20156434 33.75898644 -147 39 C-150.5253012 37.66516575 -153.75328447 36.10730361 -157.02734375 34.2421875 C-158.45276489 33.43164917 -158.45276489 33.43164917 -159.90698242 32.60473633 C-160.90705322 32.03392334 -161.90712402 31.46311035 -162.9375 30.875 C-163.96786377 30.29838623 -164.99822754 29.72177246 -166.05981445 29.12768555 C-170.54694964 26.60620211 -174.97460932 24.09139448 -179.203125 21.15234375 C-179.80519775 20.75096191 -180.40727051 20.34958008 -181.02758789 19.93603516 C-182.56697133 18.89408155 -184.07238519 17.80241459 -185.57421875 16.70703125 C-191.502384 15.48354447 -195.9690681 19.06087456 -201 22 C-201.91225342 22.51506104 -202.82450684 23.03012207 -203.7644043 23.56079102 C-206.52721416 25.13712431 -209.26480764 26.7512591 -212 28.375 C-214.10610909 29.61440643 -216.21290871 30.85264003 -218.3203125 32.08984375 C-219.95661621 33.05059814 -219.95661621 33.05059814 -221.62597656 34.03076172 C-227.35268521 37.3731374 -233.11378329 40.65513177 -238.875 43.9375 C-241.24500629 45.2886864 -243.61477416 46.64029019 -245.984375 47.9921875 C-246.56957916 48.32604965 -247.15478333 48.6599118 -247.75772095 49.00389099 C-253.89078697 52.50497553 -260.00921238 56.03133041 -266.125 59.5625 C-267.70341675 60.4738269 -267.70341675 60.4738269 -269.3137207 61.40356445 C-273.12285709 63.60357611 -276.93151313 65.80441793 -280.7399292 68.00567627 C-283.70186636 69.71766271 -286.66395525 71.42938514 -289.62646484 73.14038086 C-291.84723158 74.42307326 -294.06763471 75.70639548 -296.28759766 76.99047852 C-297.80232666 77.86530884 -297.80232666 77.86530884 -299.34765625 78.7578125 C-300.22429932 79.2645752 -301.10094238 79.77133789 -302.00415039 80.29345703 C-304.55673344 81.74749953 -307.11863976 83.18122865 -309.6872406 84.60665894 C-310.49552024 85.05532255 -311.30379988 85.50398617 -312.13657284 85.96624565 C-312.7515038 86.30738459 -313.36643476 86.64852352 -314 87 C-314.23364804 105.93212839 -314.40996476 124.86396411 -314.51812172 143.79723549 C-314.56967719 152.58845856 -314.63995605 161.37878566 -314.75439453 170.16943359 C-314.85409784 177.83184764 -314.91858848 185.49361289 -314.94088495 193.15665758 C-314.95391863 197.21426045 -314.98451829 201.27000736 -315.05730057 205.32701492 C-315.12528512 209.14761381 -315.14609893 212.96559686 -315.13107681 216.78674316 C-315.13382371 218.18729258 -315.15366496 219.58793113 -315.19205475 220.987957 C-315.30123937 225.17589419 -315.26254282 228.9880831 -314 233 C-310.01573446 237.02124362 -305.9305387 238.90612603 -300.3046875 239.1796875 C-298.26940471 238.7415251 -298.26940471 238.7415251 -296 238 C-294.94329102 237.68321289 -293.88658203 237.36642578 -292.79785156 237.04003906 C-288.88064013 235.80318973 -285.00207037 234.48116543 -281.125 233.125 C-280.42025543 232.88046082 -279.71551086 232.63592163 -278.9894104 232.38397217 C-246.8288866 221.19419613 -216.04201774 206.77988307 -187 189 C-186.12311523 188.46455566 -185.24623047 187.92911133 -184.34277344 187.37744141 C-162.11214895 173.7357298 -140.97594128 158.26859894 -121.80078125 140.5546875 C-119.65634408 138.59867368 -117.48878443 136.69654207 -115.2890625 134.8046875 C-110.34484387 130.48962724 -105.69922418 125.89111211 -101.0625 121.25 C-100.1744165 120.36111084 -99.28633301 119.47222168 -98.37133789 118.55639648 C-93.27898038 113.41609099 -88.4287297 108.27408528 -83.9921875 102.5546875 C-82.05921423 100.07593354 -80.04156096 97.70532729 -77.98364258 95.33105469 C-71.82749895 88.2114603 -66.36327836 80.72753657 -61 73 C-60.36191406 72.1028125 -59.72382813 71.205625 -59.06640625 70.28125 C-54.83086264 64.31941578 -50.87773908 58.19966795 -47 52 C-50.35862051 49.29813944 -53.94651268 47.32834828 -57.75 45.3125 C-58.35199219 44.99216797 -58.95398438 44.67183594 -59.57421875 44.34179688 C-61.04788011 43.5581833 -62.52372194 42.77867267 -64 42 C-64 41.34 -64 40.68 -64 40 C-62.19018555 38.67822266 -62.19018555 38.67822266 -59.63671875 37.1640625 C-58.22688721 36.31896118 -58.22688721 36.31896118 -56.78857422 35.45678711 C-55.76521973 34.85229736 -54.74186523 34.24780762 -53.6875 33.625 C-51.55779853 32.34898256 -49.42890292 31.07161923 -47.30078125 29.79296875 C-46.2329541 29.15278809 -45.16512695 28.51260742 -44.06494141 27.85302734 C-39.79732282 25.27287559 -35.58147343 22.61582463 -31.375 19.9375 C-23.48764121 14.92290217 -15.55035184 9.99304334 -7.58740234 5.09936523 C-6.74129395 4.57802002 -5.89518555 4.0566748 -5.0234375 3.51953125 C-4.26981934 3.05651611 -3.51620117 2.59350098 -2.73974609 2.11645508 C-1.04524932 1.11631806 -1.04524932 1.11631806 0 0 Z " fill="#3D84AC" transform="translate(412,105)"/>
<path d="M0 0 C0 28.05 0 56.1 0 85 C-8.25 89.62 -16.5 94.24 -25 99 C-31.23774775 102.64975507 -31.23774775 102.64975507 -37.4609375 106.32421875 C-44.23429853 110.33309978 -51.06788517 114.23867952 -57.8894043 118.16479492 C-66.70394111 123.24197327 -75.49212003 128.36317661 -84.26000977 133.52050781 C-86.07011854 134.58120051 -87.88818574 135.62849014 -89.71582031 136.65869141 C-92.18687997 138.05139978 -92.18687997 138.05139978 -95 140.2578125 C-98.72763914 141.18001489 -99.58521759 140.52188017 -102.921875 138.7578125 C-104.87896464 137.57025811 -106.82079617 136.35733838 -108.75 135.125 C-110.91067644 133.80340833 -113.07216272 132.48313993 -115.234375 131.1640625 C-116.90790039 130.12813965 -116.90790039 130.12813965 -118.61523438 129.07128906 C-124.01246453 125.76848319 -129.50721976 122.64032849 -135 119.5 C-137.1554767 118.25742724 -139.31042371 117.01393519 -141.46484375 115.76953125 C-145.37734961 113.51147667 -149.29208152 111.25738763 -153.2093811 109.00765991 C-155.99620828 107.40519132 -158.77900241 105.79574305 -161.5625 104.1875 C-162.59826172 103.59453125 -163.63402344 103.0015625 -164.70117188 102.390625 C-165.64669922 101.84277344 -166.59222656 101.29492188 -167.56640625 100.73046875 C-168.81852905 100.00960083 -168.81852905 100.00960083 -170.09594727 99.27416992 C-172 98 -172 98 -173 96 C-172.22325928 95.73485596 -171.44651855 95.46971191 -170.64624023 95.1965332 C-119.13124687 77.51239423 -70.09685687 54.9061727 -27 21 C-25.86756504 20.12190872 -24.73472863 19.24433501 -23.6015625 18.3671875 C-16.68386737 12.99083808 -9.90795104 7.47267175 -3.23046875 1.80078125 C-1 0 -1 0 0 0 Z " fill="#8DCAEE" transform="translate(320,270)"/>
<path d="M0 0 C15.84 0 31.68 0 48 0 C48.72187056 18.06493306 49.32969783 36.12213163 49.7382679 54.19638634 C49.9315589 62.59158994 50.17362338 70.97981301 50.53417969 79.36962891 C53.11963527 140.52333776 53.11963527 140.52333776 41.73789024 154.08630562 C37.10548634 158.97269432 31.84491176 162.75647561 26.06564331 166.16716003 C21.91267874 168.65007102 18.51761248 171.70933985 15 175 C12.72251357 176.99584372 10.42478324 178.96742502 8.125 180.9375 C7.27421875 181.67709961 7.27421875 181.67709961 6.40625 182.43164062 C2.22914138 186 2.22914138 186 0 186 C0 124.62 0 63.24 0 0 Z " fill="#8CC9EE" transform="translate(272,75)"/>
<path d="M0 0 C16.17 0 32.34 0 49 0 C49.88239381 20.65158027 49.88239381 20.65158027 50.07421875 29.53125 C50.20524932 35.5678621 50.35923803 41.59706327 50.65966797 47.62792969 C52.23244069 80.04044269 52.23244069 80.04044269 46.95495605 88.13772583 C41.92368476 93.00368048 36.17709122 95.70059665 29.63995361 98.03149414 C26.24702127 99.27624133 23.50712738 100.94132408 20.46875 102.88671875 C18.81576694 103.82608469 17.15975386 104.76014976 15.5 105.6875 C14.64792969 106.17154297 13.79585937 106.65558594 12.91796875 107.15429688 C8.65517738 109.56413305 4.38753279 111.8062336 0 114 C0 76.38 0 38.76 0 0 Z " fill="#8DCAEF" transform="translate(198,196)"/>
<path d="M0 0 C0.9698584 0.5775 1.9397168 1.155 2.93896484 1.75 C4.0245166 2.38550781 5.11006836 3.02101563 6.22851562 3.67578125 C7.369909 4.36564927 8.51035734 5.05708305 9.64990234 5.75 C10.81736563 6.45239285 11.98517277 7.15421448 13.15332031 7.85546875 C15.42816273 9.22116321 17.69992133 10.59155432 19.97021484 11.96484375 C22.48655627 13.43539111 24.98442554 14.76064975 27.61865234 16 C33.55179901 18.94032047 33.55179901 18.94032047 36.02490234 21.75 C37.06968209 26.97925659 36.823338 31.50898644 36.02490234 36.75 C32.49960115 35.41516575 29.27161787 33.85730361 25.99755859 31.9921875 C24.57213745 31.18164917 24.57213745 31.18164917 23.11791992 30.35473633 C22.11784912 29.78392334 21.11777832 29.21311035 20.08740234 28.625 C19.05703857 28.04838623 18.0266748 27.47177246 16.96508789 26.87768555 C12.4779527 24.35620211 8.05029302 21.84139448 3.82177734 18.90234375 C3.21970459 18.50096191 2.61763184 18.09958008 1.99731445 17.68603516 C0.45793101 16.64408155 -1.04748285 15.55241459 -2.54931641 14.45703125 C-8.47748165 13.23354447 -12.94416576 16.81087456 -17.97509766 19.75 C-18.88735107 20.26506104 -19.79960449 20.78012207 -20.73950195 21.31079102 C-23.50231182 22.88712431 -26.23990529 24.5012591 -28.97509766 26.125 C-31.08120675 27.36440643 -33.18800636 28.60264003 -35.29541016 29.83984375 C-36.93171387 30.80059814 -36.93171387 30.80059814 -38.60107422 31.78076172 C-44.32778286 35.1231374 -50.08888094 38.40513177 -55.85009766 41.6875 C-58.22010395 43.0386864 -60.58987182 44.39029019 -62.95947266 45.7421875 C-63.54467682 46.07604965 -64.12988098 46.4099118 -64.7328186 46.75389099 C-70.86588463 50.25497553 -76.98431003 53.78133041 -83.10009766 57.3125 C-84.6785144 58.2238269 -84.6785144 58.2238269 -86.28881836 59.15356445 C-90.09795475 61.35357611 -93.90661079 63.55441793 -97.71502686 65.75567627 C-100.67696402 67.46766271 -103.6390529 69.17938514 -106.6015625 70.89038086 C-108.82232924 72.17307326 -111.04273237 73.45639548 -113.26269531 74.74047852 C-114.77742432 75.61530884 -114.77742432 75.61530884 -116.32275391 76.5078125 C-117.19939697 77.0145752 -118.07604004 77.52133789 -118.97924805 78.04345703 C-121.53183109 79.49749953 -124.09373741 80.93122865 -126.66233826 82.35665894 C-127.4706179 82.80532255 -128.27889753 83.25398617 -129.11167049 83.71624565 C-129.72660146 84.05738459 -130.34153242 84.39852352 -130.97509766 84.75 C-131.23219252 103.66479758 -131.42609833 122.57924015 -131.54503155 141.49542332 C-131.60172568 150.27887478 -131.67899841 159.06124 -131.80493164 167.84399414 C-131.9146591 175.50019318 -131.98555732 183.15560559 -132.0100711 190.81256908 C-132.02439965 194.86646512 -132.05799968 198.91811111 -132.13812828 202.97128487 C-132.21299921 206.78956949 -132.23579048 210.60468652 -132.21928215 214.42363548 C-132.22230001 215.82218298 -132.24407695 217.22084004 -132.28635788 218.61875153 C-132.4090231 222.88487763 -132.35731654 226.69295862 -130.97509766 230.75 C-127.65949783 233.93020247 -124.16849281 235.91785898 -119.97509766 237.75 C-122.901272 239.7007829 -124.99554347 240.46513462 -128.35009766 241.375 C-129.28595703 241.63539063 -130.22181641 241.89578125 -131.18603516 242.1640625 C-135.72142836 243.1168762 -137.84559484 243.32358739 -142.08131409 241.17259216 C-144.44957687 239.09730064 -144.94921658 237.88632604 -145.54438591 234.75132942 C-145.78222071 230.68709336 -145.82132355 226.65950239 -145.79907227 222.59008789 C-145.81211857 221.02272863 -145.82766971 219.45538852 -145.84553528 217.88807678 C-145.88568852 213.63582367 -145.88744401 209.38437066 -145.87984538 205.13196492 C-145.87663507 201.58068008 -145.89128905 198.02955691 -145.90566164 194.47830671 C-145.93894092 186.09975388 -145.9402631 177.72160452 -145.92211914 169.34301758 C-145.90399463 160.7020467 -145.94094283 152.06254067 -146.00482935 143.42181975 C-146.05768435 135.99993557 -146.0756808 128.57851757 -146.06591612 121.15645212 C-146.06047791 116.72486344 -146.06837699 112.2943198 -146.11005974 107.86290169 C-146.14779775 103.69496539 -146.14197173 99.52931146 -146.10282707 95.36141014 C-146.09573048 93.83360141 -146.10393381 92.30563203 -146.12869644 90.77800751 C-146.30227779 79.23580571 -146.30227779 79.23580571 -143.00223637 75.54134083 C-140.71129003 73.98866217 -138.5135813 72.83840249 -135.97509766 71.75 C-134.98646729 71.14937744 -133.99783691 70.54875488 -132.97924805 69.92993164 C-132.10260498 69.42840576 -131.22596191 68.92687988 -130.32275391 68.41015625 C-129.31277344 67.83007812 -128.30279297 67.25 -127.26220703 66.65234375 C-126.19808594 66.04519531 -125.13396484 65.43804687 -124.03759766 64.8125 C-122.30775205 63.82007862 -120.57790923 62.82765235 -118.84823608 61.83493042 C-117.06569894 60.81235909 -115.28241569 59.79109866 -113.49902344 58.77001953 C-107.98319997 55.610301 -102.47986199 52.42893132 -96.97509766 49.25 C-94.81110313 48.0011843 -92.64704043 46.7524867 -90.48291016 45.50390625 C-89.41073242 44.88531738 -88.33855469 44.26672852 -87.23388672 43.62939453 C-83.958102 41.74019834 -80.68153873 39.85235891 -77.40478516 37.96484375 C-67.87052442 32.4714016 -58.33936394 26.97303668 -48.8347168 21.4284668 C-46.86095936 20.27714866 -44.88620223 19.12754248 -42.91040039 17.97973633 C-37.70698097 14.95208013 -32.5322811 11.8844048 -27.38525391 8.76171875 C-26.30195801 8.11146729 -25.21866211 7.46121582 -24.10253906 6.79125977 C-22.02822069 5.54517643 -19.96101488 4.28714874 -17.90234375 3.01538086 C-16.49782959 2.17632202 -16.49782959 2.17632202 -15.06494141 1.3203125 C-14.24888428 0.82289551 -13.43282715 0.32547852 -12.59204102 -0.18701172 C-8.09854022 -2.01224751 -4.45147845 -1.8703077 0 0 Z " fill="#4A52A3" transform="translate(228.97509765625,107.25)"/>
<path d="M0 0 C0.33 0 0.66 0 1 0 C1.09259945 13.75154286 1.16371412 27.5030118 1.20724869 41.2548027 C1.22814102 47.64003241 1.25648927 54.02504913 1.30175781 60.41015625 C1.34515599 66.56985829 1.3691247 72.7293552 1.37950897 78.8891983 C1.38691112 81.24160238 1.40136541 83.59399498 1.42292023 85.94631195 C1.45187327 89.23626644 1.45595929 92.5253687 1.45410156 95.81542969 C1.46848267 96.79222687 1.48286377 97.76902405 1.49768066 98.77542114 C1.45719695 105.38249686 1.45719695 105.38249686 -0.88334656 108.54370117 C-3.17990314 110.12377687 -5.45865059 111.5602897 -7.91015625 112.890625 C-8.88573486 113.42671387 -9.86131348 113.96280273 -10.86645508 114.51513672 C-11.9211499 115.0876416 -12.97584473 115.66014648 -14.0625 116.25 C-16.34012631 117.50494077 -18.61611475 118.76285785 -20.890625 120.0234375 C-21.47729446 120.3485733 -22.06396393 120.67370911 -22.66841125 121.00869751 C-28.95615143 124.50765622 -35.13610989 128.18366663 -41.3125 131.875 C-51.13516186 137.73679662 -61.01571381 143.47769615 -70.95855713 149.13220215 C-79.06658639 153.74332653 -87.14245605 158.40472747 -95.1875 163.125 C-104.74516599 168.73021142 -114.38343933 174.17856739 -124.0690918 179.55908203 C-125.06336182 180.11192871 -126.05763184 180.66477539 -127.08203125 181.234375 C-127.96093018 181.72131836 -128.8398291 182.20826172 -129.74536133 182.70996094 C-131.53905343 183.7362597 -133.28052815 184.85368544 -135 186 C-142.06329233 186.04610504 -147.25224946 182.26981192 -153.125 178.6875 C-155.2859256 177.39754464 -157.44739342 176.10849723 -159.609375 174.8203125 C-160.68767578 174.17352539 -161.76597656 173.52673828 -162.87695312 172.86035156 C-167.34226003 170.2004361 -171.85439892 167.62692809 -176.375 165.0625 C-187.60369995 158.6663094 -198.80248052 152.21877421 -209.98583984 145.74365234 C-211.91991865 144.62481297 -213.85504963 143.50778934 -215.79150391 142.39306641 C-218.21805574 140.99612633 -220.64082448 139.59287097 -223.0625 138.1875 C-223.7647168 137.78515137 -224.46693359 137.38280273 -225.19042969 136.96826172 C-229.88559199 134.22881602 -229.88559199 134.22881602 -231 132 C-228.96185767 131.32263519 -226.91929445 130.65856466 -224.875 130 C-223.73804688 129.62875 -222.60109375 129.2575 -221.4296875 128.875 C-216.99471652 127.74352676 -213.6233535 127.30370135 -209.34472656 129.13891602 C-208.45237305 129.67186279 -207.56001953 130.20480957 -206.640625 130.75390625 C-205.6206543 131.35348145 -204.60068359 131.95305664 -203.54980469 132.57080078 C-201.91640137 133.55669189 -201.91640137 133.55669189 -200.25 134.5625 C-199.09618528 135.24599419 -197.94154696 135.92809977 -196.78613281 136.60888672 C-194.38419891 138.02549451 -191.98592335 139.44802649 -189.58984375 140.87451172 C-182.94414775 144.82134663 -176.22857612 148.6507084 -169.5065918 152.46582031 C-164.17803411 155.5083972 -158.96903588 158.63776445 -153.86328125 162.04296875 C-152.88456055 162.67702637 -151.90583984 163.31108398 -150.89746094 163.96435547 C-149.06163761 165.16115039 -147.2487122 166.39414863 -145.46582031 167.66845703 C-142.91561179 169.30616439 -140.97250307 170.39249596 -138 171 C-133.82275199 169.78357226 -130.57072225 167.43260518 -127 165 C-124.914599 163.79691588 -122.81909105 162.61121479 -120.71484375 161.44140625 C-118.45500088 160.14971082 -116.19591708 158.85668669 -113.9375 157.5625 C-112.7078663 156.8587682 -111.47821091 156.15507432 -110.24853516 155.45141602 C-98.88911406 148.94804244 -87.55106845 142.40766361 -76.21777344 135.85888672 C-71.89623003 133.36235929 -67.57319006 130.86843046 -63.25 128.37475586 C-61.09620284 127.13234237 -58.94255516 125.88966972 -56.7890625 124.64672852 C-51.74938477 121.73813417 -46.70866762 118.8313905 -41.66400146 115.93145752 C-39.88250422 114.90724335 -38.10135678 113.88242349 -36.3203125 112.85742188 C-34.08923375 111.57366625 -31.85750427 110.29104061 -29.625 109.00976562 C-28.61179687 108.42646484 -27.59859375 107.84316406 -26.5546875 107.2421875 C-25.67280762 106.7354248 -24.79092773 106.22866211 -23.88232422 105.70654297 C-22.93115723 105.14338379 -21.97999023 104.58022461 -21 104 C-20.3395572 103.68058378 -19.6791144 103.36116756 -18.99865818 103.03207207 C-16.75423353 101.85055252 -14.88765916 100.69923515 -13 99 C-12.20808636 95.79200825 -12.0040404 93.87420906 -12.14282227 90.68066406 C-12.14635712 89.8555835 -12.14989197 89.03050293 -12.15353394 88.18041992 C-12.16609951 86.39326531 -12.19695406 84.60616582 -12.24405098 82.81958771 C-12.3172072 79.98458588 -12.33935565 77.15320847 -12.34812927 74.31732178 C-12.37988863 67.27486944 -12.49377273 60.23427234 -12.61523438 53.19287109 C-12.71586288 47.24386656 -12.78012852 41.2967159 -12.79456902 35.34685516 C-12.81603452 32.56382013 -12.89060151 29.7854674 -12.9669342 27.003479 C-13.11752137 14.75411247 -13.11752137 14.75411247 -10.0463562 9.93347168 C-7.81233068 7.7056418 -5.51916724 5.88770135 -3 4 C-1.97672371 2.68444558 -0.96961313 1.35559144 0 0 Z " fill="#4A52A3" transform="translate(360,239)"/>
<path d="M0 0 C0 28.05 0 56.1 0 85 C-8.25 89.62 -16.5 94.24 -25 99 C-31.79790623 102.98763777 -31.79790623 102.98763777 -38.57421875 107.01171875 C-41.66729913 108.80690451 -44.79503981 110.41732095 -48 112 C-48.37219069 102.28184591 -48.65570335 92.56617272 -48.82899475 82.84242535 C-48.91221259 78.32588755 -49.02483716 73.81425195 -49.20703125 69.30053711 C-50.35317682 40.15705149 -50.35317682 40.15705149 -46.49575806 33.34265137 C-42.94005993 29.50962908 -38.95125866 27.56226356 -34.07392883 25.86135864 C-30.46947419 24.36433131 -27.65241924 21.86552001 -24.6875 19.375 C-23.54714216 18.46157909 -22.40542308 17.54985224 -21.26171875 16.640625 C-20.17366237 15.76142653 -19.08640279 14.88124094 -18 14 C-16.46279297 12.75476563 -16.46279297 12.75476563 -14.89453125 11.484375 C-11.02810825 8.33279674 -7.18319769 5.15912696 -3.375 1.9375 C-1 0 -1 0 0 0 Z " fill="#8BC9EE" transform="translate(320,270)"/>
<path d="M0 0 C15.84 0 31.68 0 48 0 C48 15.84 48 31.68 48 48 C38.32242108 52.5162035 28.92119272 56.7352892 18.9375 60.375 C17.76767578 60.81199219 16.59785156 61.24898438 15.39257812 61.69921875 C10.14529151 63.63069861 5.56275716 65.07287381 0 66 C0 44.22 0 22.44 0 0 Z " fill="#8BC9EE" transform="translate(125,274)"/>
<path d="M0 0 C0.30187973 9.63993118 0.5325117 19.2782253 0.67355824 28.92185974 C0.74127553 33.40061917 0.83300831 37.87613525 0.98071289 42.35302734 C1.12250768 46.67811584 1.19979294 51.00009763 1.23340416 55.32733154 C1.25733523 56.9735407 1.3040797 58.61958857 1.37449074 60.26446533 C1.58765535 65.45299896 1.57210721 70.01693914 0 75 C-3.9374158 78.84904574 -7.96148317 80.7657013 -13 83 C-14.9131702 84.13801359 -16.81284066 85.29960527 -18.6875 86.5 C-22.75 89 -22.75 89 -25 89 C-25.48916888 79.57796606 -25.86087687 70.1603622 -26.08805561 60.72835255 C-26.19717849 56.3466157 -26.34466988 51.97362212 -26.58422852 47.59692383 C-28.09536137 19.27797119 -28.09536137 19.27797119 -22.91937256 12.12445068 C-17.98836569 7.69700029 -12.48722135 4.96041389 -6.2474823 2.82035828 C-4.11346892 2.04141753 -2.17540932 0 0 0 Z " fill="#FEFEFE" transform="translate(272,307)"/>
<path d="M0 0 C0 15.84 0 31.68 0 48 C-3.96719535 46.41312186 -7.33679995 44.76789329 -11.015625 42.65625 C-11.58478134 42.33065094 -12.15393768 42.00505188 -12.74034119 41.66958618 C-14.57888594 40.61648485 -16.41458881 39.55855188 -18.25 38.5 C-19.51205876 37.77446046 -20.77418471 37.04903777 -22.03637695 36.32373047 C-25.13081634 34.54400723 -28.22244713 32.75946484 -31.31329346 30.97351074 C-32.85986476 30.08088138 -34.40812119 29.19117333 -35.95654297 28.30175781 C-38.37022827 26.91522025 -40.7798078 25.52191071 -43.1875 24.125 C-43.88069336 23.72732422 -44.57388672 23.32964844 -45.28808594 22.91992188 C-49.88427519 20.23144961 -49.88427519 20.23144961 -51 18 C-50.14994385 17.70343506 -49.2998877 17.40687012 -48.42407227 17.10131836 C-44.46850663 15.71819542 -40.51481784 14.3298726 -36.5625 12.9375 C-35.85492554 12.68833832 -35.14735107 12.43917664 -34.41833496 12.1824646 C-25.41921254 9.00646213 -16.48417991 5.75946924 -7.73657227 1.93139648 C-4.94896937 0.72267267 -3.08219302 0 0 0 Z " fill="#FDFDFE" transform="translate(198,348)"/>
<path d="M0 0 C0 7.92 0 15.84 0 24 C-6.23442714 20.63003938 -12.44765166 17.22346386 -18.625 13.75 C-19.24068848 13.40904297 -19.85637695 13.06808594 -20.49072266 12.71679688 C-24.88514184 10.22971631 -24.88514184 10.22971631 -26 8 C-22.2318169 6.65909207 -18.46004479 5.3285821 -14.6875 4 C-13.61564453 3.6184375 -12.54378906 3.236875 -11.43945312 2.84375 C-10.41142578 2.4828125 -9.38339844 2.121875 -8.32421875 1.75 C-7.37635498 1.41484375 -6.42849121 1.0796875 -5.4519043 0.734375 C-3 0 -3 0 0 0 Z " fill="#89C7EC" transform="translate(173,358)"/>
</svg>
